<svg width="137" height="18" viewBox="0 0 137 18" fill="none" xmlns="http://www.w3.org/2000/svg">
<path fill-rule="evenodd" clip-rule="evenodd" d="M113.01 16.8887V10.936C113.01 9.34979 112.572 8.11137 111.697 7.22073C110.821 6.33009 109.421 5.89364 107.497 5.91137C106.598 5.89611 105.7 5.98344 104.823 6.17147C104.627 6.21231 104.433 6.26262 104.243 6.32221C103.067 6.70349 102.795 6.98132 103.104 8.00989C103.142 8.12221 103.123 8.06605 103.163 8.17837C103.503 9.24241 103.563 9.36063 104.854 8.99413C104.969 8.96124 105.086 8.93459 105.204 8.91433C105.792 8.79748 106.391 8.74198 106.992 8.74881C107.867 8.74881 108.528 8.93108 108.973 9.29561C109.203 9.49725 109.383 9.74529 109.499 10.0215C109.616 10.2977 109.665 10.5951 109.644 10.8917V11.0867C109.195 10.9405 108.736 10.8239 108.271 10.738C107.728 10.643 107.176 10.5984 106.623 10.605C105.943 10.5982 105.264 10.6757 104.605 10.8355C104.044 10.9702 103.515 11.2039 103.045 11.5242C102.613 11.8242 102.264 12.2173 102.025 12.671C101.768 13.1892 101.642 13.7568 101.656 14.3291C101.64 14.8743 101.754 15.416 101.99 15.9133C102.206 16.3459 102.516 16.7299 102.901 17.0394C103.294 17.3521 103.748 17.5882 104.237 17.734C104.77 17.8904 105.326 17.9681 105.884 17.9646C106.635 17.984 107.381 17.8457 108.068 17.5596C108.653 17.3001 109.178 16.9334 109.612 16.4808C109.612 16.6316 109.612 16.803 109.612 16.933C109.621 17.1497 109.718 17.3548 109.883 17.5044C110.049 17.6541 110.27 17.7365 110.499 17.734H112.143C112.26 17.7337 112.376 17.7111 112.483 17.6674C112.591 17.6238 112.688 17.5601 112.769 17.4801C112.85 17.4 112.913 17.3054 112.954 17.2018C112.996 17.0981 113.015 16.9876 113.01 16.8769V16.8887ZM109.69 13.5961C109.696 13.881 109.631 14.1632 109.5 14.4199C109.37 14.6767 109.177 14.9007 108.939 15.0739C108.366 15.4837 107.662 15.6926 106.945 15.6651C106.454 15.6865 105.968 15.5558 105.563 15.2927C105.389 15.1738 105.25 15.0159 105.157 14.8332C105.065 14.6505 105.022 14.4488 105.032 14.2463C105.014 14.0038 105.065 13.7611 105.178 13.543C105.292 13.3249 105.464 13.1393 105.678 13.005C106.213 12.7032 106.831 12.5592 107.453 12.5912C107.86 12.5893 108.266 12.63 108.664 12.7124C109.017 12.7843 109.361 12.8902 109.69 13.0286V13.5961Z" fill="#4132E5"/>
<path fill-rule="evenodd" clip-rule="evenodd" d="M99.1948 14.9971L99.0076 14.8168C98.1714 14.0868 98.1964 14.0217 96.7424 14.7991C96.2695 15.034 95.7412 15.151 95.2074 15.139C94.7628 15.1434 94.3225 15.0577 93.9157 14.8878C93.5387 14.7211 93.202 14.4827 92.9267 14.1873C92.6491 13.8878 92.4371 13.5392 92.3027 13.1616C92.1552 12.7536 92.0814 12.3249 92.0843 11.8937V11.8493C92.0821 11.4297 92.156 11.0128 92.3027 10.6168C92.4409 10.2436 92.6526 9.89855 92.9267 9.60007C93.1868 9.31339 93.5051 9.0792 93.8627 8.9114C94.2402 8.74004 94.6546 8.65404 95.0732 8.66017C95.6227 8.64262 96.1673 8.76294 96.652 9.00893C97.9748 9.71829 98.0185 9.78036 98.7798 9.03849L99.1511 8.66017C99.7969 7.94194 100.015 7.53997 98.8672 6.7981C98.5921 6.6191 98.3032 6.46003 98.0029 6.32223C97.0866 5.94568 96.0933 5.76698 95.0951 5.79908C94.1969 5.78857 93.306 5.95254 92.4774 6.28086C91.7123 6.58488 91.0187 7.02996 90.4369 7.59021C89.863 8.15044 89.4095 8.81095 89.1015 9.53504C88.776 10.2849 88.6116 11.0888 88.6179 11.8996V11.9439C88.5989 13.1314 88.9565 14.297 89.6446 15.2898C90.3327 16.2826 91.3196 17.0569 92.4774 17.5124C93.2915 17.8382 94.1676 18.0022 95.0514 17.9942C96.0862 18.0371 97.116 17.8339 98.0466 17.403C98.3322 17.2529 98.6082 17.0871 98.8734 16.9065C99.9498 16.1203 99.9436 15.6828 99.1948 14.9971Z" fill="#4132E5"/>
<path fill-rule="evenodd" clip-rule="evenodd" d="M63.9227 12.2099C63.9345 11.3855 63.8135 10.5642 63.5639 9.7744C63.3397 9.03554 62.9644 8.34562 62.4594 7.74386C61.9535 7.14821 61.314 6.66663 60.5874 6.334C59.7501 5.96808 58.8353 5.7891 57.9135 5.81085C57.0877 5.79978 56.2686 5.95354 55.5095 6.26214C54.7505 6.57073 54.0686 7.02725 53.5081 7.60199C52.9646 8.16867 52.5409 8.82888 52.2601 9.54681C51.9576 10.302 51.8053 11.1037 51.8108 11.9113V11.9557C51.7977 12.7967 51.9621 13.6318 52.2944 14.4118C52.6023 15.1292 53.0609 15.7798 53.6422 16.3242C54.2282 16.8692 54.9273 17.2929 55.6952 17.5685C56.5157 17.8656 57.3878 18.014 58.2661 18.0059C59.2767 18.0254 60.2783 17.8231 61.1927 17.4148C61.6399 17.2061 62.0589 16.9471 62.4407 16.6434C62.5764 16.564 62.6891 16.4539 62.7687 16.323C62.8483 16.1921 62.8922 16.0445 62.8965 15.8935C62.9009 15.7424 62.8655 15.5928 62.7935 15.458C62.7215 15.3232 62.6153 15.2074 62.4844 15.1212L62.1505 14.8256C61.358 14.3143 61.1896 14.3025 60.2785 14.8256C60.1482 14.9012 60.0114 14.9664 59.8698 15.0207C59.3768 15.2198 58.8457 15.3204 58.3098 15.3163C57.6007 15.3373 56.9052 15.1288 56.3379 14.7251C55.7788 14.294 55.405 13.6845 55.2865 13.0109H62.1505C63.2332 13.0109 63.9196 12.9931 63.9289 12.1803L63.9227 12.2099ZM60.5094 10.9655H55.2241C55.3241 10.2934 55.635 9.66529 56.1164 9.16258C56.3474 8.937 56.626 8.76012 56.9341 8.64349C57.2421 8.52686 57.5727 8.4731 57.9042 8.48573C58.2341 8.47098 58.5634 8.52381 58.8698 8.64062C59.1762 8.75742 59.4523 8.93546 59.6795 9.16258C60.147 9.66734 60.4371 10.2975 60.5094 10.9655Z" fill="#4132E5"/>
<path fill-rule="evenodd" clip-rule="evenodd" d="M32.7041 16.1587V16.0582C32.7041 14.7223 32.7446 14.7075 31.7868 14.9233C31.5194 14.9793 31.2463 15.0071 30.9725 15.006C30.2216 15.006 29.8451 14.6277 29.843 13.871V8.49469H31.8242C31.9459 8.49744 32.0668 8.47717 32.1801 8.43507C32.2933 8.39297 32.3965 8.32988 32.4837 8.2495C32.5709 8.16912 32.6402 8.07307 32.6877 7.96698C32.7352 7.86088 32.7599 7.74687 32.7602 7.63163V6.52326C32.7603 6.4079 32.7359 6.29371 32.6886 6.18743C32.6413 6.08114 32.5719 5.98493 32.4846 5.90447C32.3974 5.82401 32.294 5.76094 32.1806 5.71899C32.0671 5.67703 31.946 5.65704 31.8242 5.6602H29.843V3.29567C29.843 3.06678 29.747 2.84725 29.5762 2.6854C29.4053 2.52355 29.1736 2.43262 28.932 2.43262H27.2503C27.0087 2.43262 26.7769 2.52355 26.6061 2.6854C26.4352 2.84725 26.3392 3.06678 26.3392 3.29567V14.4178C26.3209 14.9928 26.4107 15.5663 26.6044 16.1114C26.7563 16.5212 27.0086 16.8909 27.3408 17.1903C27.659 17.4739 28.0474 17.6772 28.4702 17.7814C28.9495 17.8959 29.4424 17.9515 29.9366 17.9469C30.4634 17.956 30.9887 17.8933 31.4966 17.7607L31.7743 17.675C32.6885 17.3499 32.7041 17.1164 32.7041 16.1587Z" fill="#4132E5"/>
<path fill-rule="evenodd" clip-rule="evenodd" d="M7.75642 2.33789C6.59265 2.33789 6.52713 2.53001 6.08097 3.52016L0.393177 16.1881C-0.311947 17.7339 -0.159066 17.7339 1.51326 17.7339H1.75975C3.00775 17.7339 3.28855 17.796 3.82832 16.5517L4.7924 14.3142H11.6065L12.5675 16.5517C13.1041 17.8019 13.4161 17.7546 14.6392 17.7339H14.8857C16.558 17.7339 16.7015 17.7339 16.0057 16.1852L10.318 3.52607C9.86867 2.53001 9.80627 2.3438 8.64251 2.3438L7.75642 2.33789ZM6.06225 11.3379L8.19946 6.39306L10.3367 11.3379H6.06225Z" fill="#4132E5"/>
<path d="M21.4218 5.63965H19.7401C19.237 5.63965 18.8291 6.02605 18.8291 6.5027V16.8741C18.8291 17.3508 19.237 17.7372 19.7401 17.7372H21.4218C21.925 17.7372 22.3329 17.3508 22.3329 16.8741V6.5027C22.3329 6.02605 21.925 5.63965 21.4218 5.63965Z" fill="#4132E5"/>
<path fill-rule="evenodd" clip-rule="evenodd" d="M37.1285 2.44775H43.5932C45.5151 2.44775 47.0107 2.89209 48.0798 3.78076C49.1489 4.66943 49.6824 5.90687 49.6804 7.49308C49.6804 8.59849 49.4557 9.6714 48.7256 10.5611C48.0808 11.3446 47.2156 11.9398 46.2296 12.2783L48.6726 15.6803C49.5743 16.9246 50.2326 17.7492 48.6944 17.7492H47.1781C46.058 17.7492 45.8958 17.5896 45.2811 16.7207L42.5511 12.8576H39.7618V16.8744C39.7602 17.1005 39.6653 17.317 39.4974 17.4778C39.3295 17.6385 39.1019 17.7306 38.8633 17.7345H37.1285C36.8866 17.7345 36.6546 17.6436 36.4832 17.4819C36.3119 17.3201 36.2152 17.1006 36.2144 16.8714V3.31081C36.2152 3.08164 36.3119 2.86213 36.4832 2.70036C36.6546 2.53859 36.8866 2.44775 37.1285 2.44775ZM39.7681 5.48322V9.87534H43.3686C44.0954 9.92102 44.8144 9.71048 45.3872 9.28421C45.6201 9.08779 45.8042 8.84489 45.9261 8.573C46.0481 8.3011 46.1048 8.00697 46.0923 7.71179C46.1197 7.39592 46.0668 7.07843 45.9382 6.78586C45.8095 6.49328 45.6088 6.23412 45.3529 6.03002C44.7524 5.63532 44.0295 5.44279 43.2999 5.48322H39.7681Z" fill="#4132E5"/>
<path d="M69.3082 2.45312H67.5766C67.0734 2.45312 66.6655 2.83953 66.6655 3.31618V16.8797C66.6655 17.3564 67.0734 17.7428 67.5766 17.7428H69.3082C69.8113 17.7428 70.2192 17.3564 70.2192 16.8797V3.31618C70.2192 2.83953 69.8113 2.45312 69.3082 2.45312Z" fill="#4132E5"/>
<path fill-rule="evenodd" clip-rule="evenodd" d="M122.71 16.1587V16.0582C122.71 14.7223 122.754 14.7075 121.793 14.9203C121.527 14.9788 121.255 15.0076 120.982 15.006C120.227 15.006 119.852 14.6277 119.852 13.871V8.49469H121.846C122.088 8.49313 122.319 8.4013 122.489 8.23914C122.66 8.07698 122.756 7.85761 122.757 7.62868V6.52326C122.756 6.2946 122.66 6.07553 122.489 5.91385C122.319 5.75216 122.087 5.66098 121.846 5.6602H119.852V3.29567C119.851 3.0665 119.755 2.84699 119.583 2.68522C119.412 2.52345 119.18 2.43262 118.938 2.43262H117.259C117.018 2.43262 116.786 2.52345 116.614 2.68522C116.443 2.84699 116.346 3.0665 116.345 3.29567V14.4178C116.328 14.9918 116.418 15.564 116.611 16.1085C116.764 16.5191 117.017 16.8898 117.35 17.1903C117.668 17.4745 118.056 17.6779 118.479 17.7814C118.958 17.8959 119.449 17.9515 119.943 17.9469C120.464 17.9548 120.984 17.8921 121.487 17.7607L121.768 17.675C122.698 17.3499 122.71 17.1164 122.71 16.1587Z" fill="#4132E5"/>
<path fill-rule="evenodd" clip-rule="evenodd" d="M137 12.2099C137.014 11.3864 136.898 10.5656 136.657 9.7744C136.431 9.03537 136.055 8.34546 135.549 7.74386C135.043 7.14856 134.403 6.66705 133.677 6.334C132.84 5.96808 131.925 5.7891 131.003 5.81085C130.177 5.79903 129.358 5.95246 128.599 6.2611C127.84 6.56975 127.158 7.02666 126.598 7.60199C126.054 8.16881 125.631 8.82898 125.35 9.54681C125.047 10.302 124.895 11.1037 124.9 11.9113V11.9557C124.889 12.7966 125.053 13.6314 125.384 14.4118C125.694 15.1288 126.154 15.7792 126.735 16.3242C127.32 16.8688 128.018 17.2925 128.785 17.5685C129.605 17.8654 130.477 18.0138 131.356 18.0059C132.367 18.0258 133.37 17.8235 134.285 17.4148C134.732 17.2054 135.151 16.9464 135.533 16.6434C135.669 16.564 135.782 16.4539 135.861 16.323C135.941 16.1921 135.985 16.0445 135.989 15.8935C135.994 15.7424 135.958 15.5928 135.886 15.458C135.814 15.3232 135.708 15.2074 135.577 15.1212L135.243 14.8256C134.451 14.3143 134.282 14.3025 133.371 14.8256C133.242 14.9011 133.106 14.9664 132.966 15.0207C132.473 15.2192 131.942 15.3197 131.406 15.3163C130.697 15.3373 130.001 15.1288 129.434 14.7251C128.875 14.2944 128.502 13.6845 128.386 13.0109H135.25C136.329 13.0109 137.019 12.9931 137.028 12.1803L137 12.2099ZM133.587 10.9655H128.304C128.405 10.2942 128.715 9.66647 129.194 9.16258C129.424 8.93655 129.703 8.75937 130.011 8.6427C130.319 8.52604 130.65 8.47254 130.981 8.48573C131.311 8.47117 131.641 8.5241 131.947 8.64089C132.253 8.75769 132.529 8.93562 132.757 9.16258C133.223 9.66797 133.513 10.2978 133.587 10.9655Z" fill="#4132E5"/>
<path fill-rule="evenodd" clip-rule="evenodd" d="M74.0756 8.8406C74.6525 7.89412 75.489 7.1131 76.4964 6.58028C77.5037 6.04746 78.6444 5.78268 79.7977 5.814C80.9802 5.84651 82.0035 6.03272 82.4029 5.37656C82.8023 4.7204 82.3811 4.19429 82.2282 3.19528C82.1688 2.81656 82.1922 2.43031 82.2969 2.06051C82.4017 1.69072 82.5856 1.34528 82.8372 1.04565C83.0889 0.74602 83.4028 0.4986 83.7597 0.318756C84.1165 0.138911 84.5085 0.0304832 84.9114 0.00020615C85.5376 -0.0445284 86.1628 0.0987222 86.6982 0.409626C87.2336 0.720529 87.6521 1.18329 87.8941 1.73223C88.0419 2.07402 88.1169 2.44014 88.1146 2.80949C88.1123 3.17885 88.0329 3.54412 87.881 3.88426C87.729 4.22441 87.5074 4.53269 87.2291 4.79135C86.9508 5.05001 86.6212 5.25392 86.2593 5.39134C85.2733 5.76375 84.5776 5.68691 84.1782 6.33715C83.7788 6.9874 84.459 7.73814 85.0799 8.70168C85.6693 9.61487 85.9929 10.6596 86.0179 11.7297C86.0429 12.7998 85.7684 13.8571 85.2223 14.7941C84.6761 15.7311 83.8779 16.5144 82.9086 17.0644C81.9393 17.6144 80.8336 17.9115 79.7038 17.9254C78.574 17.9394 77.4605 17.6697 76.4764 17.1439C75.4923 16.618 74.6727 15.8547 74.101 14.9315C73.5292 14.0083 73.2257 12.9581 73.2212 11.8878C73.2168 10.8175 73.5116 9.76508 74.0756 8.83764V8.8406ZM77.2518 10.5608C76.979 11.0069 76.8521 11.5197 76.8873 12.0343C76.9224 12.5488 77.118 13.0418 77.4493 13.4509C77.7805 13.86 78.2325 14.1667 78.748 14.3322C79.2634 14.4977 79.8192 14.5145 80.3447 14.3805C80.8702 14.2465 81.342 13.9677 81.7001 13.5794C82.0582 13.1912 82.2866 12.711 82.3563 12.1996C82.4261 11.6883 82.334 11.1689 82.0918 10.7072C81.8496 10.2455 81.4681 9.86225 80.9958 9.60612C80.3654 9.26339 79.6173 9.17143 78.9155 9.35039C78.2137 9.52935 77.6154 9.96462 77.2518 10.5608Z" fill="url(#paint0_linear_313_779)"/>
<defs>
<linearGradient id="paint0_linear_313_779" x1="77.389" y1="15.4199" x2="85.6305" y2="0.857554" gradientUnits="userSpaceOnUse">
<stop stop-color="#3F35E1"/>
<stop offset="1" stop-color="#BC6DFF"/>
</linearGradient>
</defs>
</svg>
